<svg width="62" height="124" viewBox="0 0 62 124" fill="none" xmlns="http://www.w3.org/2000/svg">
<g clip-path="url(#clip0_1193_27176)">
<path d="M28.4021 29.3427C26.7826 23.4337 40.2564 20.4546 36.8325 7.07812C37.6779 10.3847 27.7119 18.0442 25.8262 19.7972C20.2109 25.0587 28.1334 29.6234 28.1334 29.6234" fill="#6F499D"/>
<path d="M29.4919 12.5024C28.5823 9.18354 36.1474 7.51179 34.2247 0C34.7004 1.85641 29.0975 6.15519 28.0474 7.14002C24.9045 10.097 29.3415 12.66 29.3415 12.66" fill="#6F499D"/>
<path d="M39.6939 15.4912C35.5428 24.6009 24.3862 35.3085 20.4668 38.908C20.5876 38.908 20.6837 38.9499 20.802 38.9696H20.908C23.8661 36.8497 30.3614 32.7282 36.5954 32.6125C38.7161 29.2254 39.9346 25.3531 40.1351 21.3633C40.2337 19.3952 40.0855 17.4225 39.6939 15.4912Z" fill="url(#paint0_linear_1193_27176)"/>
<path d="M16.2765 43.6971C13.7587 47.4443 12.3101 51.8055 12.0859 56.3128C12.0859 56.4629 12.0859 56.6107 12.0859 56.7584C12.3875 52.0352 14.4559 47.5978 17.8806 44.3268C21.3052 41.0558 25.8359 39.1903 30.5735 39.1004C32.9665 37.3333 35.0045 35.1315 36.5808 32.6104C32.5527 32.689 28.6033 33.738 25.0683 35.6683C21.5332 37.5985 18.5171 40.3528 16.2765 43.6971Z" fill="#2C3588"/>
<path d="M30.6198 39.1006H30.573C25.8353 39.1905 21.3047 41.056 17.88 44.327C14.4553 47.598 12.387 52.0353 12.0854 56.7586C12.0351 58.2085 12.1109 59.66 12.3121 61.0968C12.7575 63.7191 13.7522 66.218 15.2313 68.4298C16.7105 70.6415 18.6406 72.5164 20.8953 73.9316C18.6024 67.8457 18.3101 61.1886 20.0608 54.9257C21.8116 48.6627 25.5144 43.1197 30.6321 39.1006H30.6198Z" fill="url(#paint1_linear_1193_27176)"/>
<path d="M45.9275 46.4991C47.7643 48.982 48.6945 52.0182 48.5634 55.1025C48.4322 58.1868 47.2475 61.1333 45.2065 63.4516C43.1655 65.7699 40.3912 67.3202 37.3453 67.8445C34.2995 68.3689 31.1656 67.8357 28.4654 66.3336C25.113 65.3488 21.095 61.5473 21.4992 53.8189C21.8912 46.3612 30.6198 39.1006 30.6198 39.1006C25.5021 43.1197 21.7993 48.6627 20.0485 54.9257C18.2977 61.1886 18.59 67.8458 20.883 73.9316C24.6318 76.2839 29.0889 77.2459 33.4756 76.6495C37.8624 76.0532 41.8999 73.9364 44.8829 70.669C47.866 67.4015 49.6048 63.1912 49.7957 58.7734C49.9867 54.3555 48.6175 50.0112 45.9275 46.4991Z" fill="url(#paint2_linear_1193_27176)"/>
<path d="M40.9644 46.2425L38.0458 52.8901C39.1089 54.3675 39.6828 56.1399 39.6874 57.9593C39.6919 59.7787 39.1267 61.5539 38.071 63.0366C37.0153 64.5192 35.5218 65.6351 33.7997 66.2279C32.0776 66.8208 30.2129 66.861 28.4668 66.3429C31.1672 67.8391 34.2986 68.3678 37.3413 67.8414C40.3841 67.315 43.155 65.765 45.1942 63.4488C47.2334 61.1325 48.4181 58.1894 48.5518 55.108C48.6854 52.0265 47.7599 48.9921 45.9289 46.5084C45.6455 46.1391 45.3521 45.7698 45.044 45.43C44.2785 44.5957 43.4115 43.8604 42.4631 43.2412L40.9644 46.2425Z" fill="#262262"/>
<path d="M32.0524 57.3489C32.4172 50.9746 52.4627 53.8404 44.4736 38.1816C46.2607 41.6852 34.8773 45.9692 32.6834 47.0697C26.5209 50.1572 32.0548 57.3391 32.0548 57.3391L32.0524 57.3489Z" fill="url(#paint3_linear_1193_27176)"/>
<path d="M5.09806 102.098H7.68879C7.55075 104.494 6.32564 106.156 3.99127 107.054L4.56316 108.115C7.91557 107.244 9.85307 105.23 10.314 102.098H31.067V95.2042C31.067 92.0725 28.6143 90.1939 24.3621 90.1939H19.2941L21.7196 87.7318L25.5897 84.5459H21.7196C19.9744 86.6707 17.4675 89.3371 14.1693 92.523H23.7631C26.8444 92.523 28.3702 93.5571 28.3702 95.6548V99.6286H10.3609V90.2555H6.37987C4.47195 90.2555 2.92885 90.8833 1.74565 92.1069C0.56244 93.3306 0.0078125 94.9112 0.0078125 96.8981C0.0078125 98.5329 0.52793 99.8108 1.53612 100.764C2.42599 101.662 3.62645 102.098 5.09806 102.098ZM6.21471 91.8386H7.60745V99.6507H5.31745C3.62645 99.6507 2.78095 98.5625 2.78095 96.4106C2.78095 93.5768 4.06276 91.8386 6.21471 91.8386Z" fill="#262262"/>
<path d="M36.4301 87.8587C36.6472 87.8633 36.8631 87.8245 37.065 87.7444C37.2669 87.6643 37.4506 87.5447 37.6055 87.3926C37.7603 87.2404 37.8831 87.0589 37.9666 86.8586C38.05 86.6583 38.0925 86.4433 38.0915 86.2264C38.0902 85.7864 37.9148 85.3648 37.6036 85.0535C37.2923 84.7422 36.8705 84.5664 36.4301 84.5645C36.2126 84.5638 35.9972 84.6065 35.7966 84.6901C35.5959 84.7737 35.414 84.8965 35.2615 85.0513C35.109 85.2062 34.989 85.3899 34.9086 85.5917C34.8282 85.7934 34.789 86.0092 34.7933 86.2264C34.7896 86.442 34.8294 86.6561 34.9104 86.8559C34.9914 87.0558 35.1119 87.2373 35.2646 87.3897C35.4174 87.542 35.5993 87.6621 35.7996 87.7427C35.9998 87.8233 36.2142 87.8627 36.4301 87.8587Z" fill="#262262"/>
<path d="M38.3101 90.583L35.0686 91.3216L35.6134 94.9704L35.6405 101.805C35.6405 104.526 34.3834 106.269 31.8789 107.059L32.4508 108.12C36.348 107.032 38.3101 104.637 38.3101 100.961V90.583Z" fill="#262262"/>
<path d="M41.797 98.0394C41.797 100.573 43.3499 102.097 45.8322 102.097H61.9633L61.6108 99.2655L58.0661 99.6471H56.6487C55.899 99.6597 55.1745 99.3766 54.6323 98.8593C54.0037 98.2585 53.7055 97.4436 53.7055 96.3972C53.7055 93.8662 54.8221 92.5859 57.0283 92.5859C58.1637 92.5987 59.2678 92.9596 60.1909 93.62L61.2287 92.3889C59.5377 91.1111 57.9305 90.4587 56.4293 90.4587C54.8492 90.4316 53.5403 90.9511 52.5321 92.0369C51.5239 93.1226 51.0063 94.4866 51.0063 96.1756C51.0063 97.5642 51.3612 98.7066 52.0687 99.6225H46.4854C45.1765 99.6225 44.5134 98.8839 44.5134 97.3894V84.5645L41.3262 85.3031L41.7896 88.7869L41.797 98.0394Z" fill="#262262"/>
<path d="M56.023 87.8593C56.2401 87.8636 56.4558 87.8245 56.6576 87.7443C56.8593 87.6641 57.0429 87.5445 57.1977 87.3924C57.3525 87.2403 57.4753 87.0589 57.5589 86.8587C57.6424 86.6586 57.6851 86.4438 57.6844 86.2269C57.6844 85.7829 57.5078 85.3571 57.1935 85.0431C56.8791 84.7291 56.4528 84.5527 56.0082 84.5527C55.5637 84.5527 55.1373 84.7291 54.823 85.0431C54.5086 85.3571 54.332 85.7829 54.332 86.2269C54.3339 86.4456 54.3794 86.6616 54.4657 86.8625C54.5521 87.0634 54.6776 87.2452 54.835 87.3971C54.9924 87.549 55.1785 87.6682 55.3825 87.7475C55.5865 87.8269 55.8042 87.8649 56.023 87.8593Z" fill="#262262"/>
<path d="M10.3848 118.091C9.47027 118.091 8.41278 118.024 7.11125 118.024C6.97074 118.024 6.93377 118.074 6.95349 118.207C6.96925 118.305 7.00444 118.4 7.05702 118.485C7.07882 118.549 7.11612 118.606 7.16558 118.652C7.21505 118.698 7.27514 118.731 7.3405 118.748C7.50072 118.795 8.3265 118.911 8.50152 118.943C9.10051 119.091 9.15228 119.403 9.15228 120.701C9.15228 121.801 9.01177 122.456 8.64202 122.67C8.24305 122.909 7.78828 123.039 7.32324 123.047C6.13139 123.034 4.98307 122.598 4.08421 121.816C3.58478 121.362 3.18941 120.806 2.92519 120.186C2.66098 119.566 2.53417 118.895 2.55344 118.221C2.55344 116.22 3.43098 114.922 4.29374 114.201C5.00368 113.625 5.89639 113.322 6.81052 113.347C7.54631 113.327 8.27318 113.511 8.9103 113.879C9.54741 114.247 10.0698 114.785 10.4193 115.432C10.5253 115.594 10.5598 115.661 10.614 115.661H10.8531C11.1317 115.661 11.1859 115.629 11.2204 115.612C11.2549 115.594 11.2549 115.447 11.2204 115.218C11.0567 114.395 10.957 113.561 10.9222 112.724C10.9222 112.608 10.8876 112.591 10.8162 112.573L10.3601 112.492C10.2911 112.492 10.2566 112.492 10.2196 112.573L10.0791 112.82C10.0446 112.886 9.95587 112.886 9.83262 112.837C9.07538 112.635 8.29436 112.535 7.51058 112.541C6.57393 112.538 5.64002 112.643 4.72758 112.854C3.49507 113.182 2.5633 113.526 1.73752 114.265C1.17667 114.743 0.730493 115.342 0.431859 116.015C0.133226 116.689 -0.0102483 117.421 0.0120111 118.157V118.182C0.00196919 118.937 0.154099 119.685 0.458139 120.376C0.762179 121.067 1.21106 121.685 1.7745 122.188C3.02426 123.303 4.92478 123.862 7.26408 123.862C7.94935 123.862 8.51384 123.813 9.13009 123.764C9.88685 123.714 10.1506 123.714 10.4316 123.714C10.6502 123.727 10.8672 123.669 11.0503 123.549C11.1408 123.485 11.2127 123.399 11.2586 123.298C11.3045 123.197 11.3228 123.086 11.3116 122.976C11.3289 120.317 11.4176 119.167 11.4521 118.987C11.6296 118.953 11.9821 118.906 12.1571 118.871C12.192 118.593 12.192 118.312 12.1571 118.034C11.8096 118.039 11.2648 118.091 10.3848 118.091Z" fill="#262262"/>
<path d="M23.8743 121.629C23.5933 121.055 22.378 118.28 21.779 116.786C21.1628 115.244 20.7758 114.306 20.2507 112.832C20.1792 112.585 20.1078 112.536 19.8785 112.536H19.8613C19.5898 112.555 19.3229 112.616 19.07 112.716C19.0263 112.74 18.9881 112.772 18.958 112.812C18.9278 112.851 18.9063 112.897 18.895 112.945C18.8235 113.142 18.6657 113.521 18.5055 113.915C17.5565 116.047 15.4637 120.563 15.0545 121.417C14.6675 122.17 14.421 122.712 13.5237 122.975C13.4374 123.007 13.5607 123.468 13.6297 123.566C13.647 123.615 13.6642 123.633 13.7332 123.633C13.8022 123.633 14.1054 123.633 14.4037 123.633C14.771 123.633 15.794 123.633 16.8342 123.648C16.9895 123.633 17.1497 123.042 17.061 123.007C16.2328 122.81 16.0405 122.712 16.0405 122.367C16.0405 121.86 16.499 120.89 16.674 120.464C16.78 120.218 16.8687 120.137 17.236 120.102C17.9755 120.038 19.807 120.038 20.5465 120.053C20.7733 120.053 20.8793 120.186 20.9853 120.398C21.1258 120.661 21.7421 122.121 21.7593 122.416C21.8111 122.796 21.6533 122.909 20.862 123.106C20.8103 123.172 20.9853 123.598 21.0395 123.682C21.0938 123.766 21.0913 123.746 21.1603 123.746C21.3033 123.746 22.0403 123.682 22.6221 123.682C23.2038 123.682 23.5563 123.682 25.4026 123.697C25.5259 123.682 25.7206 123.074 25.6664 123.057C24.562 122.833 24.2958 122.505 23.8743 121.629ZM20.1768 119.1C19.6123 119.117 19.277 119.117 18.6978 119.117C18.0297 119.117 17.7487 119.1 17.623 119.1H17.6082C17.3987 119.1 17.2927 118.987 17.3272 118.888C18.0322 117.197 18.259 116.655 18.858 115.375C18.8684 115.357 18.8836 115.343 18.9018 115.334C18.92 115.325 18.9404 115.321 18.9608 115.322C18.9811 115.324 19.0006 115.332 19.0168 115.344C19.0331 115.356 19.0455 115.373 19.0527 115.392C19.3682 116.131 19.738 117.098 20.406 118.888C20.4405 118.96 20.3025 119.09 20.1792 119.09L20.1768 119.1Z" fill="#262262"/>
<path d="M34.3378 118.517C33.7733 118.007 32.8243 117.599 31.609 117.106C30.6057 116.712 30.1127 116.449 29.7282 116.104C29.5703 115.965 29.4444 115.793 29.3593 115.6C29.2742 115.408 29.2319 115.199 29.2352 114.989C29.2352 114.068 30.0265 113.347 31.0273 113.347C31.7161 113.352 32.3913 113.538 32.9845 113.888C33.5638 114.265 33.8103 114.792 34.0223 115.53C34.0568 115.644 34.0913 115.661 34.2515 115.629C34.4017 115.566 34.5482 115.494 34.6903 115.415C34.7765 115.366 34.7938 115.316 34.7765 115.151C34.5911 114.261 34.5322 113.35 34.6015 112.443C34.3911 112.421 34.1792 112.416 33.968 112.428C33.8448 112.608 33.7388 112.738 33.5268 112.756C33.3864 112.759 33.246 112.748 33.1077 112.724C32.5504 112.617 31.9843 112.561 31.4167 112.559C30.4511 112.555 29.4962 112.761 28.6189 113.164C27.8252 113.593 27.1227 114.297 27.1227 115.513C27.1022 116.174 27.342 116.817 27.7907 117.303C28.407 117.993 29.2697 118.369 30.5367 118.879C31.1388 119.103 31.7209 119.377 32.277 119.699C32.5354 119.847 32.7509 120.06 32.9026 120.316C33.0542 120.572 33.1368 120.864 33.1422 121.161C33.1422 122.375 32.1217 123.096 30.8892 123.096C30.3267 123.074 29.7757 122.931 29.274 122.676C28.7723 122.421 28.3318 122.06 27.983 121.619C27.7602 121.316 27.5887 120.978 27.4752 120.62C27.4541 120.559 27.4125 120.508 27.3576 120.474C27.3027 120.441 27.238 120.428 27.1744 120.437C27.0333 120.438 26.8923 120.45 26.7529 120.472C26.6642 120.504 26.6469 120.519 26.6642 120.634C26.8262 121.514 26.9382 122.401 26.9994 123.293C27.0167 123.737 27.0512 123.902 27.0882 123.936C27.1508 123.976 27.2233 123.998 27.2977 124H27.3174C27.3833 124.006 27.4497 123.999 27.5128 123.979C27.5759 123.96 27.6344 123.927 27.6847 123.884C27.7984 123.798 27.9227 123.727 28.0545 123.673C28.1635 123.638 28.2807 123.638 28.3897 123.673C29.1132 123.822 29.8498 123.898 30.5885 123.902C31.2047 123.902 32.7528 123.722 33.7043 123.261C34.2001 123.038 34.6202 122.675 34.9138 122.217C35.2074 121.76 35.3618 121.227 35.3583 120.684C35.3583 119.78 35.0945 119.192 34.3378 118.517Z" fill="#262262"/>
<path d="M47.5816 120.89C47.3523 120.725 47.2833 120.743 47.2661 120.807C47.098 121.103 46.9033 121.384 46.6843 121.646C46.3688 122.058 45.9648 122.395 45.5019 122.63C45.039 122.866 44.5291 122.995 44.0098 123.008C40.5785 123.008 39.5037 120.201 39.5037 118.33C39.5037 116.951 39.839 115.653 40.7017 114.669C41.069 114.237 41.5278 113.892 42.0449 113.659C42.5621 113.426 43.1246 113.311 43.6918 113.322C44.6605 113.322 45.506 113.617 45.8733 113.93C46.1027 114.095 46.2703 114.331 46.3491 114.602C46.4841 114.93 46.6018 115.264 46.7016 115.604C46.7385 115.688 46.8766 115.752 47.1058 115.735C47.3351 115.718 47.4756 115.703 47.4756 115.653C47.3868 114.651 47.4066 113.733 47.7591 112.847C47.7763 112.78 47.7763 112.748 47.6358 112.716C47.3696 112.601 47.2833 112.601 47.2291 112.618C46.8938 112.78 46.6843 112.83 46.5266 112.78C45.8667 112.605 45.1855 112.522 44.5028 112.534C43.6579 112.519 42.8139 112.597 41.986 112.765C40.7535 113.061 39.3287 113.519 38.3945 114.489C37.4248 115.523 36.9008 116.896 36.9352 118.313V118.33C36.9352 120.922 38.8357 123.926 43.8372 123.926C45.0352 123.926 46.1445 123.633 46.603 123.633C46.8125 123.648 46.8643 123.648 46.9875 123.483C47.4211 122.777 47.7031 121.989 47.8158 121.169C47.8059 121.095 47.7714 121.028 47.5816 120.89Z" fill="#262262"/>
<path d="M55.6825 112.52H55.6652C53.9979 112.517 52.379 113.08 51.0729 114.115C50.48 114.601 50.002 115.212 49.6731 115.904C49.3441 116.596 49.1723 117.352 49.1699 118.118C49.2012 119.509 49.7404 120.84 50.6859 121.861C51.9529 123.207 53.994 123.929 56.035 123.929C57.4369 123.879 58.784 123.372 59.8706 122.486C60.5409 121.936 61.0799 121.244 61.4484 120.46C61.8168 119.676 62.0054 118.82 62.0003 117.953C62.0003 114.905 59.0768 112.52 55.6825 112.52ZM56.2642 123.126C55.2437 123.126 54.2232 122.796 53.1485 121.698C52.2149 120.656 51.7065 119.302 51.7237 117.904C51.7237 116.493 51.9874 115.326 52.8305 114.376C53.1164 114.037 53.4719 113.763 53.873 113.573C54.274 113.383 54.7112 113.282 55.155 113.275H55.1722C55.7012 113.281 56.2239 113.391 56.71 113.599C57.1962 113.807 57.6361 114.11 58.0045 114.489C59.1656 115.654 59.4663 117.163 59.4663 118.675C59.4663 121.605 57.7235 123.131 56.2642 123.131V123.126Z" fill="#262262"/>
</g>
<defs>
<linearGradient id="paint0_linear_1193_27176" x1="19.0765" y1="27.2304" x2="40.1598" y2="27.2304" gradientUnits="userSpaceOnUse">
<stop stop-color="#00AEC3"/>
<stop offset="0.25" stop-color="#206EB6"/>
<stop offset="0.67" stop-color="#6F499D"/>
<stop offset="1" stop-color="#5A266B"/>
</linearGradient>
<linearGradient id="paint1_linear_1193_27176" x1="11.9703" y1="57.635" x2="32.0156" y2="55.9709" gradientUnits="userSpaceOnUse">
<stop stop-color="#18A0DB"/>
<stop offset="1" stop-color="#2C3588"/>
</linearGradient>
<linearGradient id="paint2_linear_1193_27176" x1="4967.95" y1="12573.1" x2="8804.43" y2="12771" gradientUnits="userSpaceOnUse">
<stop stop-color="#18A0DB"/>
<stop offset="1" stop-color="#2C3588"/>
</linearGradient>
<linearGradient id="paint3_linear_1193_27176" x1="12578.7" y1="209.789" x2="13731.1" y2="95.2951" gradientUnits="userSpaceOnUse">
<stop stop-color="#18A0DB"/>
<stop offset="1" stop-color="#2C3588"/>
</linearGradient>
<clipPath id="clip0_1193_27176">
<rect width="62" height="124" fill="white"/>
</clipPath>
</defs>
</svg>
